<?xml version="1.0" encoding="UTF-8" standalone="no"?>
<!DOCTYPE svg PUBLIC "-//W3C//DTD SVG 1.1//EN" "http://www.w3.org/Graphics/SVG/1.1/DTD/svg11.dtd">
<svg width="100%" height="100%" viewBox="0 0 1800 1350" version="1.1" xmlns="http://www.w3.org/2000/svg" xmlns:xlink="http://www.w3.org/1999/xlink" xml:space="preserve" xmlns:serif="http://www.serif.com/" style="fill-rule:evenodd;clip-rule:evenodd;stroke-linecap:round;stroke-linejoin:round;stroke-miterlimit:1.5;">
    <g transform="matrix(1.76185,0,0,1.04752,-3657.61,-477.63)">
        <rect id="Artboard2" x="2076.01" y="455.961" width="1021.65" height="1288.75" style="fill:none;"/>
        <g id="Artboard21" serif:id="Artboard2">
            <g transform="matrix(0.567585,0,0,0.954632,1863.16,6.01085)">
                <path d="M949.06,499.691L994.934,483.936C994.934,483.936 1022.97,481.714 1047.75,519.509C1072.95,509.524 1121.34,515.398 1130.59,501.472C1179.09,521.926 1232.1,512.07 1245.83,506.57C1279.47,493.089 1289.53,483.936 1289.53,483.936L1326.52,499.006L1360.86,483.936L1382.33,513.575L1427.1,516.263L1444.9,548.408L1474.59,546.995L1493.41,532.148L1519.31,564.679L1562.46,564.223L1576.3,516.742L1601.74,497.658L1631.1,511.822L1670.73,528.698L1706.95,515.422L1714.61,558.336L1767.11,565.879L1779.71,610.766L1839.61,614.899L1859.67,648.634L1839.57,661.82L1822.51,692.462L1907.96,695.457L1933.58,672.533L1964.66,695.522L1980.17,729.9L2011.58,732.007L2026.49,761.179L2075.52,776.781L2081.33,834.074L2122.08,861.848L2152.69,889.586L2152.69,955.361L2137.83,986.94L2117.75,1013.6L2112.09,1028.45L2139.09,1063.78L2152.69,1100.36L2123.49,1127.92L2102.94,1146.35L2091.34,1173.89L2083.55,1208.86L2034.56,1216.91L2009.82,1256.05L1976.13,1262.8L2000.07,1292.95L2026.59,1314.24L2050.56,1327.29L2036.25,1378.64L1982.62,1362.99L1959.26,1377.16L1955.88,1411.9L1931.19,1422.62L1902.47,1437.07L1898.45,1399.54L1859.54,1406.81L1845.28,1392.13L1827.98,1361.28L1816.31,1395.82L1808.42,1443.55L1777.16,1442.85L1762.9,1423.7L1737.66,1425L1737.29,1386.77L1674.51,1375.05L1630.98,1364.1L1621.23,1392.41L1606.06,1408.24L1570.8,1401.5L1558.21,1348.9L1511.56,1348.9L1513.82,1373.24L1490.5,1380.34L1460.02,1390.89L1448.9,1412.78L1420.42,1429.32L1396.28,1409.58L1370.37,1423.19L1348.96,1451.01L1337.12,1481.04L1306.89,1517.98L1289.53,1541.78L1275,1566.85L1262.78,1590.28L1275,1685.59L1289.53,1719.08L1521.6,1722.92L1542.19,1739.82L1593.2,1742.18L1600.59,1754.07L1640.86,1755.11L1658.5,1769L1689.19,1778.85L1721.15,1808.76L777.375,1808.76L782.692,1791.25L823.896,1786.23L832.245,1764.32L888.595,1763.37L897.192,1741.88L989.632,1743.44L1028.34,1727.71L1172.5,1719.21L1191,1704.08L1182.45,1650.03L1183.2,1612.53L1191.9,1564.79L1203.41,1527.24L1210.76,1495.47L1205.97,1470.7L1197.19,1439.88L1217.88,1422.54L1232.06,1375.52L1220.07,1357.99L1200.62,1374.56L1163.16,1375.48L1154.94,1402.5L1117.8,1410.82L1103.23,1449.03L1081.9,1464.96L1066.52,1440.89L1051.29,1414.88L1039.12,1356.38L1015.58,1393.37L1000.6,1420.9L988.794,1443.71L966.861,1420.14L929.246,1432.26L943.138,1456.81L920.422,1471.59L906.659,1495.28L886.742,1482.31L855.156,1464.95L838.098,1435.66L811.49,1429.53L837.976,1404L871.345,1394.52L890.908,1366.01L869.17,1338.07L847.864,1317.86L834.393,1353.86L805.825,1367.75L773.59,1387.39L761.748,1417.94L736.902,1389.05L720.621,1405.82L696.41,1432.44L673.282,1420.18L662.533,1400.74L691.443,1382.57L658.512,1351.52L637.919,1348.98L604.121,1385.74L555.386,1387.33L558.744,1347.61L574.902,1328.69L550.502,1301.73L604.9,1250.45L583.356,1234.73L628.439,1205.82L555.768,1202.62L538.697,1181.36L521.433,1217.56L483.398,1220.25L473.173,1242.07L435.908,1184.96L397.307,1178.15L419.666,1130.06L397.307,1117.37L429.355,1072.61L457.543,1047.69L432.344,1017.63L498.096,967.422L520.835,937.453L499.744,907.331L548.604,869.862L534.426,814.314L604.799,786.562L650.988,767.611L672.466,745.29L719.601,744.828L741.926,777.015L758.529,793.743L786.87,771.984L804.484,750.149L787.477,717.578L882.451,641.01L893.008,585.951L866.454,568L866.988,534.548L898.746,517.183L935.104,533.25L949.06,499.691ZM1358.39,1251.21L1345.76,1306.54L1307.16,1325.04L1307.16,1356.23L1348.09,1369.2L1350.92,1330.24L1383.75,1312.77L1378.91,1282.06L1388.25,1238.41L1358.39,1251.21ZM1582.66,770.117L1598.37,797.122L1606.5,836.967L1641.02,830.219L1649.78,810.47L1618.17,770.117L1633.71,749.982L1601.71,770.117L1582.66,770.117ZM1548.37,1085.47L1551.73,1115.42L1582.66,1115.93L1582.66,1146.33L1616.22,1146.33L1649.78,1168.78L1682.21,1146.33L1667.68,1125.15L1616.22,1123.26L1616.22,1107.16L1596.07,1099.01L1596.07,1069.32L1548.37,1085.47ZM1194.24,727.668L1108.81,700.489L1136.57,736.552L1160.13,746.947L1192.46,749.982L1194.24,727.668ZM1260.47,991.19L1275,1005.49L1294.36,1031.19L1292.37,991.19L1307.16,976.632L1260.47,991.19ZM1666.35,915.586L1705.79,936.631L1734.81,923.301L1769.86,902.295L1826.87,911.482L1843.17,884.434L1810.11,874.663L1771.99,884.247L1743.64,899.25L1682.21,896.614L1682.21,878.414L1649.78,899.262L1616.22,915.754L1666.35,915.586ZM728.061,951.185L757.228,983.876L734.794,1004.47L753.761,1031.19L792.656,1014.01L822.978,995.283L838.778,967.424L807.1,965.228L781.357,975.251L755.041,966.106L728.061,951.185ZM838.778,770.117L800.288,787.767L801.513,823.136L783.419,841.133L818.738,850.823L823.916,805.446L838.778,770.117ZM1086.89,887.687L1049.63,869.733L1066.16,888.943L1086.89,887.687ZM1086.89,887.687L1096.48,887.106L1111.73,906.248L1136.57,889.476L1132.76,867.798L1101.72,866.919L1086.89,887.687Z" style="fill:rgb(255,166,0);stroke:black;stroke-width:3.13px;"/>
            </g>
        </g>
    </g>
</svg>
